<svg id="visual" viewBox="0 0 960 540" width="960" height="540" xmlns="http://www.w3.org/2000/svg" xmlns:xlink="http://www.w3.org/1999/xlink" version="1.1"><path d="M846 540L851 534C856 528 866 516 867.7 504C869.3 492 862.7 480 863.2 468C863.7 456 871.3 444 870.5 432C869.7 420 860.3 408 861.8 396C863.3 384 875.7 372 876.3 360C877 348 866 336 864 324C862 312 869 300 866 288C863 276 850 264 845.7 252C841.3 240 845.7 228 847.3 216C849 204 848 192 853.2 180C858.3 168 869.7 156 870 144C870.3 132 859.7 120 860.7 108C861.7 96 874.3 84 876.7 72C879 60 871 48 866.7 36C862.3 24 861.7 12 861.3 6L861 0L960 0L960 6C960 12 960 24 960 36C960 48 960 60 960 72C960 84 960 96 960 108C960 120 960 132 960 144C960 156 960 168 960 180C960 192 960 204 960 216C960 228 960 240 960 252C960 264 960 276 960 288C960 300 960 312 960 324C960 336 960 348 960 360C960 372 960 384 960 396C960 408 960 420 960 432C960 444 960 456 960 468C960 480 960 492 960 504C960 516 960 528 960 534L960 540Z" fill="#ffde6d" stroke-linecap="round" stroke-linejoin="miter"></path></svg>