<?xml version="1.0" standalone="no"?>
<svg xmlns:xlink="http://www.w3.org/1999/xlink" id="wave" style="transform:rotate(0deg); transition: 0.3s" viewBox="0 0 1440 190" version="1.1" xmlns="http://www.w3.org/2000/svg"><defs><linearGradient id="sw-gradient-0" x1="0" x2="0" y1="1" y2="0"><stop stop-color="rgba(255, 222, 109, 1)" offset="0%"/><stop stop-color="rgba(255, 222, 109, 1)" offset="100%"/></linearGradient></defs><path style="transform:translate(0, 0px); opacity:1" fill="url(#sw-gradient-0)" d="M0,38L24,57C48,76,96,114,144,136.2C192,158,240,165,288,155.2C336,146,384,120,432,101.3C480,82,528,70,576,76C624,82,672,108,720,107.7C768,108,816,82,864,85.5C912,89,960,120,1008,120.3C1056,120,1104,89,1152,91.8C1200,95,1248,133,1296,123.5C1344,114,1392,57,1440,28.5C1488,0,1536,0,1584,15.8C1632,32,1680,63,1728,69.7C1776,76,1824,57,1872,63.3C1920,70,1968,101,2016,117.2C2064,133,2112,133,2160,117.2C2208,101,2256,70,2304,69.7C2352,70,2400,101,2448,107.7C2496,114,2544,95,2592,82.3C2640,70,2688,63,2736,60.2C2784,57,2832,57,2880,60.2C2928,63,2976,70,3024,66.5C3072,63,3120,51,3168,47.5C3216,44,3264,51,3312,57C3360,63,3408,70,3432,72.8L3456,76L3456,190L3432,190C3408,190,3360,190,3312,190C3264,190,3216,190,3168,190C3120,190,3072,190,3024,190C2976,190,2928,190,2880,190C2832,190,2784,190,2736,190C2688,190,2640,190,2592,190C2544,190,2496,190,2448,190C2400,190,2352,190,2304,190C2256,190,2208,190,2160,190C2112,190,2064,190,2016,190C1968,190,1920,190,1872,190C1824,190,1776,190,1728,190C1680,190,1632,190,1584,190C1536,190,1488,190,1440,190C1392,190,1344,190,1296,190C1248,190,1200,190,1152,190C1104,190,1056,190,1008,190C960,190,912,190,864,190C816,190,768,190,720,190C672,190,624,190,576,190C528,190,480,190,432,190C384,190,336,190,288,190C240,190,192,190,144,190C96,190,48,190,24,190L0,190Z"/></svg>